<mxfile host="app.diagrams.net" modified="2023-11-20T04:02:56.400Z" agent="Mozilla/5.0 (Windows NT 10.0; Win64; x64) AppleWebKit/537.36 (KHTML, like Gecko) Chrome/119.0.0.0 Safari/537.36" etag="eTHf-op1HtExynLrw7Jw" version="22.1.3" type="device">
  <diagram name="Page-1" id="usolCykW7kKRV4_zfm_k">
    <mxGraphModel dx="1050" dy="630" grid="1" gridSize="10" guides="1" tooltips="1" connect="1" arrows="1" fold="1" page="1" pageScale="1" pageWidth="850" pageHeight="1100" math="0" shadow="0">
      <root>
        <mxCell id="0" />
        <mxCell id="1" parent="0" />
        <mxCell id="qt17QkDywwwsEip4fatp-1" value="" style="html=1;overflow=block;blockSpacing=1;whiteSpace=wrap;container=1;pointerEvents=0;collapsible=0;recursiveResize=0;fontSize=13;spacing=0;strokeColor=#666666;strokeOpacity=100;fillOpacity=100;fillColor=#ffffff;strokeWidth=1.5;lucidId=7Wpudd4A1gtD;" vertex="1" parent="1">
          <mxGeometry x="500" y="620" width="410" height="550" as="geometry" />
        </mxCell>
        <mxCell id="qt17QkDywwwsEip4fatp-32" value="&lt;font style=&quot;font-size: 23px;&quot;&gt;&lt;b&gt;Amazon Shopping&lt;/b&gt;&lt;/font&gt;" style="text;html=1;strokeColor=default;fillColor=none;align=center;verticalAlign=middle;whiteSpace=wrap;rounded=0;" vertex="1" parent="qt17QkDywwwsEip4fatp-1">
          <mxGeometry x="50" width="321" height="60" as="geometry" />
        </mxCell>
        <mxCell id="qt17QkDywwwsEip4fatp-39" value="&lt;h1 style=&quot;font-size: 17px;&quot;&gt;&lt;font style=&quot;font-size: 17px;&quot;&gt;Privacy Policy&amp;nbsp; - Here are the highlights!&lt;/font&gt;&lt;/h1&gt;&lt;div style=&quot;&quot;&gt;&lt;font style=&quot;font-size: 11px;&quot;&gt;&lt;div style=&quot;&quot;&gt;Last Updated: August 11, 2023&lt;/div&gt;&lt;div style=&quot;&quot;&gt;&lt;br&gt;&lt;/div&gt;&lt;div style=&quot;&quot;&gt;&lt;b&gt;&lt;u&gt;What We Collect:&lt;/u&gt;&lt;/b&gt;&lt;/div&gt;&lt;div style=&quot;&quot;&gt;1. Information You Give Us:&lt;/div&gt;&lt;div style=&quot;&quot;&gt;&lt;span style=&quot;background-color: initial;&quot;&gt;&lt;span style=&quot;white-space: pre;&quot;&gt;&#x9;&lt;/span&gt;Examples: Personal details provided during account setup or &lt;span style=&quot;white-space: pre;&quot;&gt;&#x9;&lt;/span&gt;checkout.&lt;/span&gt;&lt;br&gt;&lt;/div&gt;&lt;div style=&quot;&quot;&gt;&lt;span style=&quot;white-space: pre;&quot;&gt;&#x9;&lt;/span&gt;Note: Providing certain information is optional but may affect your &lt;span style=&quot;white-space: pre;&quot;&gt;&#x9;&lt;/span&gt;experience.&lt;/div&gt;&lt;div style=&quot;&quot;&gt;&lt;br&gt;&lt;/div&gt;&lt;div style=&quot;&quot;&gt;2. Automatic Information:&lt;/div&gt;&lt;div style=&quot;&quot;&gt;&lt;span style=&quot;background-color: initial;&quot;&gt;&lt;span style=&quot;white-space: pre;&quot;&gt;&#x9;&lt;/span&gt;Examples: Data on product interactions, web browsing, and store &lt;span style=&quot;white-space: pre;&quot;&gt;&#x9;&lt;/span&gt;activity.&lt;/span&gt;&lt;br&gt;&lt;/div&gt;&lt;div style=&quot;&quot;&gt;&lt;span style=&quot;white-space: pre;&quot;&gt;&#x9;&lt;/span&gt;Collection Methods: Cookies, unique identifiers, and in-store &lt;span style=&quot;white-space: pre;&quot;&gt;&#x9;&lt;/span&gt;technology.&lt;/div&gt;&lt;div style=&quot;&quot;&gt;&lt;br&gt;&lt;/div&gt;&lt;div style=&quot;&quot;&gt;3. Information from Other Sources:&lt;/div&gt;&lt;div style=&quot;&quot;&gt;&lt;span style=&quot;background-color: initial;&quot;&gt;&lt;span style=&quot;white-space: pre;&quot;&gt;&#x9;&lt;/span&gt;Examples: Updated delivery details from carriers.&lt;/span&gt;&lt;br&gt;&lt;/div&gt;&lt;div style=&quot;&quot;&gt;&lt;span style=&quot;white-space: pre;&quot;&gt;&#x9;&lt;/span&gt;Purpose: Correct records and enhance future purchases.&lt;/div&gt;&lt;div style=&quot;&quot;&gt;&lt;br&gt;&lt;/div&gt;&lt;div style=&quot;&quot;&gt;&lt;b&gt;&lt;u&gt;How We Use Your Personal Information:&lt;/u&gt;&lt;/b&gt;&lt;/div&gt;&lt;div style=&quot;&quot;&gt;To operate, improve, and develop our products and services.&lt;/div&gt;&lt;div style=&quot;&quot;&gt;&lt;br&gt;&lt;/div&gt;&lt;div style=&quot;&quot;&gt;&lt;b&gt;&lt;u&gt;Your Choices:&lt;/u&gt;&lt;/b&gt;&lt;/div&gt;&lt;div style=&quot;&quot;&gt;You can control your Amazon experience through privacy settings.&lt;/div&gt;&lt;div style=&quot;&quot;&gt;&lt;br&gt;&lt;/div&gt;&lt;div style=&quot;&quot;&gt;&lt;br&gt;&lt;/div&gt;&lt;div style=&quot;&quot;&gt;You can find our detailed privacy policy here.&amp;nbsp;&lt;/div&gt;&lt;div style=&quot;&quot;&gt;&lt;br&gt;&lt;/div&gt;&lt;/font&gt;&lt;/div&gt;" style="text;html=1;strokeColor=#666666;fillColor=#f5f5f5;spacing=5;spacingTop=-20;whiteSpace=wrap;overflow=hidden;rounded=0;fontColor=#333333;" vertex="1" parent="qt17QkDywwwsEip4fatp-1">
          <mxGeometry x="20" y="90" width="370" height="420" as="geometry" />
        </mxCell>
        <mxCell id="qt17QkDywwwsEip4fatp-14" value="" style="html=1;overflow=block;blockSpacing=1;whiteSpace=wrap;ellipse;fontSize=13;align=center;spacing=3.8;strokeOpacity=0;fillOpacity=75;fillColor=#ff8f80;strokeWidth=1.5;lucidId=h2su0sWv3N4C;" vertex="1" parent="qt17QkDywwwsEip4fatp-1">
          <mxGeometry x="210" y="460" width="29" height="29" as="geometry" />
        </mxCell>
        <mxCell id="qt17QkDywwwsEip4fatp-5" value="" style="html=1;overflow=block;blockSpacing=1;whiteSpace=wrap;container=1;pointerEvents=0;collapsible=0;recursiveResize=0;fontSize=13;spacing=0;strokeColor=#666666;strokeOpacity=100;fillOpacity=100;fillColor=#ffffff;strokeWidth=1.5;lucidId=HOouWEsWTyNM;" vertex="1" parent="1">
          <mxGeometry x="100" y="80" width="390" height="522" as="geometry" />
        </mxCell>
        <mxCell id="qt17QkDywwwsEip4fatp-28" value="&lt;font style=&quot;font-size: 23px;&quot;&gt;&lt;b&gt;Amazon Shopping&lt;/b&gt;&lt;/font&gt;" style="text;html=1;strokeColor=default;fillColor=none;align=center;verticalAlign=middle;whiteSpace=wrap;rounded=0;" vertex="1" parent="qt17QkDywwwsEip4fatp-5">
          <mxGeometry x="39" y="30" width="321" height="60" as="geometry" />
        </mxCell>
        <mxCell id="qt17QkDywwwsEip4fatp-30" value="&lt;blockquote style=&quot;border-color: var(--border-color); color: rgb(0, 0, 0); text-align: justify;&quot;&gt;&lt;b style=&quot;border-color: var(--border-color); background-color: initial;&quot;&gt;&lt;u style=&quot;border-color: var(--border-color);&quot;&gt;Pause before you proceed!&lt;br&gt;&lt;/u&gt;&lt;/b&gt;Your privacy matters to us. We&#39;ve carefully crafted our Privacy Policy to empower you with informed choices. We want you to be fully aware of the data we collect, how we use it, and when we share it.&lt;br style=&quot;border-color: var(--border-color);&quot;&gt;Here&#39;s a quick summary:&lt;/blockquote&gt;&lt;blockquote style=&quot;border-color: var(--border-color); color: rgb(0, 0, 0); text-align: justify;&quot;&gt;We collect some of your data to enhance your shopping experience.&amp;nbsp;&lt;span style=&quot;border-color: var(--border-color); background-color: initial;&quot;&gt;We use your data to improve Amazon Shopping for everyone.&amp;nbsp;&lt;/span&gt;&lt;span style=&quot;border-color: var(--border-color); background-color: initial;&quot;&gt;We share some of your data with trusted partners to enhance our services.&lt;br&gt;&lt;br&gt;&lt;/span&gt;For more details, please click here to read our Privacy Policy.&lt;br style=&quot;border-color: var(--border-color);&quot;&gt;Happy shopping!&lt;/blockquote&gt;" style="text;html=1;strokeColor=#666666;fillColor=#f5f5f5;align=center;verticalAlign=middle;whiteSpace=wrap;rounded=0;fontColor=#333333;" vertex="1" parent="qt17QkDywwwsEip4fatp-5">
          <mxGeometry x="10" y="150" width="370" height="250" as="geometry" />
        </mxCell>
        <mxCell id="qt17QkDywwwsEip4fatp-15" value="" style="html=1;overflow=block;blockSpacing=1;whiteSpace=wrap;ellipse;fontSize=13;align=center;spacing=3.8;strokeOpacity=0;fillOpacity=75;fillColor=#ff8f80;strokeWidth=1.5;lucidId=D2sumrc52iXf;" vertex="1" parent="qt17QkDywwwsEip4fatp-5">
          <mxGeometry x="210" y="340" width="29" height="29" as="geometry" />
        </mxCell>
        <mxCell id="qt17QkDywwwsEip4fatp-6" value="" style="html=1;jettySize=18;whiteSpace=wrap;fontSize=13;strokeColor=#ffab9f;strokeOpacity=100;strokeWidth=2.3;rounded=1;arcSize=24;edgeStyle=orthogonalEdgeStyle;startArrow=none;endArrow=block;endFill=1;exitX=1;exitY=0.5;exitPerimeter=0;lucidId=~DIx8oQgb28f;entryX=0.56;entryY=-0.003;entryDx=0;entryDy=0;entryPerimeter=0;" edge="1" parent="1" source="qt17QkDywwwsEip4fatp-15" target="qt17QkDywwwsEip4fatp-1">
          <mxGeometry width="100" height="100" relative="1" as="geometry">
            <Array as="points" />
            <mxPoint x="465" y="460" as="targetPoint" />
          </mxGeometry>
        </mxCell>
        <mxCell id="qt17QkDywwwsEip4fatp-7" value="" style="html=1;jettySize=18;whiteSpace=wrap;fontSize=13;strokeColor=#ffab9f;strokeOpacity=100;strokeWidth=2.3;rounded=1;arcSize=24;edgeStyle=orthogonalEdgeStyle;startArrow=none;endArrow=block;endFill=1;exitX=1;exitY=0.5;exitPerimeter=0;lucidId=9-puJAywVzGe;" edge="1" parent="1" source="qt17QkDywwwsEip4fatp-14" target="qt17QkDywwwsEip4fatp-35">
          <mxGeometry width="100" height="100" relative="1" as="geometry">
            <Array as="points" />
            <mxPoint x="1260" y="890" as="targetPoint" />
          </mxGeometry>
        </mxCell>
        <mxCell id="qt17QkDywwwsEip4fatp-19" value="App Homepage" style="html=1;overflow=block;blockSpacing=1;whiteSpace=wrap;fontSize=16.7;fontColor=#333333;fontStyle=2;spacing=3.8;strokeOpacity=0;fillOpacity=0;fillColor=#000000;strokeWidth=1.5;lucidId=u8su-J1nbLBg;" vertex="1" parent="1">
          <mxGeometry x="170" y="25" width="240" height="45" as="geometry" />
        </mxCell>
        <mxCell id="qt17QkDywwwsEip4fatp-27" value="" style="html=1;jettySize=18;whiteSpace=wrap;fontSize=13;strokeColor=#333333;strokeOpacity=100;strokeWidth=0.8;rounded=1;arcSize=24;edgeStyle=orthogonalEdgeStyle;startArrow=none;endArrow=block;endFill=1;exitX=0.5;exitY=1.003;exitPerimeter=0;lucidId=UNPOjSI-ZI85;" edge="1" parent="1">
          <mxGeometry width="100" height="100" relative="1" as="geometry">
            <Array as="points" />
            <mxPoint x="211" y="645" as="targetPoint" />
            <mxPoint x="210.5" y="622.3330000000001" as="sourcePoint" />
          </mxGeometry>
        </mxCell>
        <mxCell id="qt17QkDywwwsEip4fatp-34" value="" style="html=1;overflow=block;blockSpacing=1;whiteSpace=wrap;container=1;pointerEvents=0;collapsible=0;recursiveResize=0;fontSize=13;spacing=0;strokeColor=#666666;strokeOpacity=100;fillOpacity=100;fillColor=#ffffff;strokeWidth=1.5;lucidId=7Wpudd4A1gtD;" vertex="1" parent="1">
          <mxGeometry x="990" y="1197" width="410" height="503" as="geometry" />
        </mxCell>
        <mxCell id="qt17QkDywwwsEip4fatp-35" value="&lt;font style=&quot;font-size: 23px;&quot;&gt;&lt;b&gt;Amazon Shopping&lt;/b&gt;&lt;/font&gt;" style="text;html=1;strokeColor=default;fillColor=none;align=center;verticalAlign=middle;whiteSpace=wrap;rounded=0;" vertex="1" parent="qt17QkDywwwsEip4fatp-34">
          <mxGeometry x="50" width="321" height="60" as="geometry" />
        </mxCell>
        <mxCell id="qt17QkDywwwsEip4fatp-59" value="" style="html=1;jettySize=18;whiteSpace=wrap;fontSize=13;strokeColor=#ffab9f;strokeOpacity=100;strokeWidth=2.3;rounded=1;arcSize=24;edgeStyle=orthogonalEdgeStyle;startArrow=none;endArrow=block;endFill=1;exitX=1;exitY=0.5;exitPerimeter=0;lucidId=9-puJAywVzGe;entryX=0.624;entryY=1.01;entryDx=0;entryDy=0;entryPerimeter=0;" edge="1" parent="qt17QkDywwwsEip4fatp-34" target="qt17QkDywwwsEip4fatp-46">
          <mxGeometry width="100" height="100" relative="1" as="geometry">
            <Array as="points" />
            <mxPoint x="360" y="293" as="sourcePoint" />
            <mxPoint x="822" y="395" as="targetPoint" />
          </mxGeometry>
        </mxCell>
        <mxCell id="qt17QkDywwwsEip4fatp-60" value="" style="html=1;overflow=block;blockSpacing=1;whiteSpace=wrap;ellipse;fontSize=13;align=center;spacing=3.8;strokeOpacity=0;fillOpacity=75;fillColor=#ff8f80;strokeWidth=1.5;lucidId=h2su0sWv3N4C;" vertex="1" parent="qt17QkDywwwsEip4fatp-34">
          <mxGeometry x="350" y="280" width="20" height="22" as="geometry" />
        </mxCell>
        <mxCell id="qt17QkDywwwsEip4fatp-45" value="&lt;h1 style=&quot;font-size: 16px;&quot;&gt;Amazon&#39;s Privacy Policy:&lt;/h1&gt;&lt;div&gt;&lt;b&gt;&lt;u&gt;Introduction&lt;/u&gt;&lt;/b&gt;:&amp;nbsp;We know that you care how information about you is used and shared, and we appreciate your trust that we will do so carefully and sensibly. This Privacy Notice describes how Amazon.com and its affiliates (collectively &quot;Amazon&quot;) collect and process your personal information through Amazon websites, devices, products, services, online and physical stores, and applications that reference this Privacy Notice (together &quot;Amazon Services&quot;). By using Amazon Services, you are consenting to the practices described in this Privacy Notice.&lt;/div&gt;&lt;div&gt;&lt;br&gt;&lt;/div&gt;&lt;div&gt;&lt;b&gt;&lt;u&gt;Table of Contents:&lt;/u&gt;&lt;/b&gt;&lt;br&gt;&lt;div&gt;&lt;ul&gt;&lt;li&gt;&lt;font color=&quot;#3399ff&quot;&gt;&lt;u&gt;What Personal Information About Customers Does Amazon Collect?&lt;/u&gt;&lt;/font&gt;&lt;/li&gt;&lt;li&gt;&lt;font color=&quot;#3399ff&quot;&gt;&lt;u&gt;For What Purposes Does Amazon Use Your Personal Information?&lt;/u&gt;&lt;/font&gt;&lt;/li&gt;&lt;li&gt;&lt;font color=&quot;#3399ff&quot;&gt;&lt;u&gt;What About Cookies and Other Identifiers?&lt;/u&gt;&lt;/font&gt;&lt;/li&gt;&lt;li&gt;&lt;font color=&quot;#3399ff&quot;&gt;&lt;u&gt;Does Amazon Share Your Personal Information?&lt;/u&gt;&lt;/font&gt;&lt;/li&gt;&lt;li&gt;&lt;font color=&quot;#3399ff&quot;&gt;&lt;u&gt;How Secure Is Information About Me?&lt;/u&gt;&lt;/font&gt;&lt;/li&gt;&lt;li&gt;&lt;font color=&quot;#3399ff&quot;&gt;&lt;u&gt;What About Advertising?&lt;/u&gt;&lt;/font&gt;&lt;/li&gt;&lt;li&gt;&lt;font color=&quot;#3399ff&quot;&gt;&lt;u&gt;What Information Can I Access?&lt;/u&gt;&lt;/font&gt;&lt;/li&gt;&lt;li&gt;&lt;font color=&quot;#3399ff&quot;&gt;&lt;u&gt;What Choices Do I Have?&lt;/u&gt;&lt;/font&gt;&lt;/li&gt;&lt;li&gt;&lt;font color=&quot;#3399ff&quot;&gt;&lt;u&gt;Are Children Allowed to Use Amazon Services?&lt;/u&gt;&lt;/font&gt;&lt;/li&gt;&lt;li&gt;&lt;font color=&quot;#3399ff&quot;&gt;&lt;u&gt;EU-US and Swiss-US Data Privacy Framework&lt;/u&gt;&lt;/font&gt;&lt;/li&gt;&lt;li&gt;&lt;font color=&quot;#3399ff&quot;&gt;&lt;u&gt;Additional State-Specific Privacy Disclosures&lt;/u&gt;&lt;/font&gt;&lt;/li&gt;&lt;li&gt;&lt;font color=&quot;#3399ff&quot;&gt;&lt;u&gt;Conditions of Use, Notices, and Revisions&lt;/u&gt;&lt;/font&gt;&lt;/li&gt;&lt;/ul&gt;&lt;/div&gt;&lt;/div&gt;" style="text;html=1;strokeColor=none;fillColor=none;spacing=5;spacingTop=-20;whiteSpace=wrap;overflow=hidden;rounded=0;" vertex="1" parent="qt17QkDywwwsEip4fatp-34">
          <mxGeometry x="20" y="80" width="370" height="440" as="geometry" />
        </mxCell>
        <mxCell id="qt17QkDywwwsEip4fatp-62" value="" style="html=1;overflow=block;blockSpacing=1;whiteSpace=wrap;ellipse;fontSize=13;align=center;spacing=3.8;strokeOpacity=0;fillOpacity=75;fillColor=#fff2cc;strokeWidth=1.5;lucidId=h2su0sWv3N4C;strokeColor=#d6b656;" vertex="1" parent="qt17QkDywwwsEip4fatp-34">
          <mxGeometry x="285" y="300" width="15" height="31" as="geometry" />
        </mxCell>
        <mxCell id="qt17QkDywwwsEip4fatp-63" value="" style="html=1;overflow=block;blockSpacing=1;whiteSpace=wrap;ellipse;fontSize=13;align=center;spacing=3.8;strokeOpacity=0;fillOpacity=75;fillColor=#e1d5e7;strokeWidth=1.5;lucidId=h2su0sWv3N4C;strokeColor=#9673a6;" vertex="1" parent="qt17QkDywwwsEip4fatp-34">
          <mxGeometry x="270" y="333" width="15" height="18" as="geometry" />
        </mxCell>
        <mxCell id="qt17QkDywwwsEip4fatp-66" value="" style="html=1;overflow=block;blockSpacing=1;whiteSpace=wrap;ellipse;fontSize=13;align=center;spacing=3.8;strokeOpacity=0;fillOpacity=75;fillColor=#e1d5e7;strokeWidth=1.5;lucidId=h2su0sWv3N4C;strokeColor=#9673a6;" vertex="1" parent="qt17QkDywwwsEip4fatp-34">
          <mxGeometry x="300" y="351" width="20" height="18" as="geometry" />
        </mxCell>
        <mxCell id="qt17QkDywwwsEip4fatp-75" value="" style="html=1;overflow=block;blockSpacing=1;whiteSpace=wrap;ellipse;fontSize=13;align=center;spacing=3.8;strokeOpacity=0;fillOpacity=75;fillColor=#d5e8d4;strokeWidth=1.5;lucidId=h2su0sWv3N4C;strokeColor=#82b366;" vertex="1" parent="qt17QkDywwwsEip4fatp-34">
          <mxGeometry x="240" y="369" width="20" height="18" as="geometry" />
        </mxCell>
        <mxCell id="qt17QkDywwwsEip4fatp-76" value="" style="html=1;overflow=block;blockSpacing=1;whiteSpace=wrap;ellipse;fontSize=13;align=center;spacing=3.8;strokeOpacity=0;fillOpacity=75;fillColor=#d5e8d4;strokeWidth=1.5;lucidId=h2su0sWv3N4C;strokeColor=#82b366;" vertex="1" parent="qt17QkDywwwsEip4fatp-34">
          <mxGeometry x="170" y="379" width="20" height="18" as="geometry" />
        </mxCell>
        <mxCell id="qt17QkDywwwsEip4fatp-81" value="" style="html=1;overflow=block;blockSpacing=1;whiteSpace=wrap;ellipse;fontSize=13;align=center;spacing=3.8;strokeOpacity=0;fillOpacity=75;fillColor=#d80073;strokeWidth=1.5;lucidId=h2su0sWv3N4C;strokeColor=#A50040;fontColor=#ffffff;" vertex="1" parent="qt17QkDywwwsEip4fatp-34">
          <mxGeometry x="220" y="397" width="20" height="18" as="geometry" />
        </mxCell>
        <mxCell id="qt17QkDywwwsEip4fatp-80" value="" style="html=1;overflow=block;blockSpacing=1;whiteSpace=wrap;ellipse;fontSize=13;align=center;spacing=3.8;strokeOpacity=0;fillOpacity=75;fillColor=#d80073;strokeWidth=1.5;lucidId=h2su0sWv3N4C;strokeColor=#A50040;fontColor=#ffffff;" vertex="1" parent="qt17QkDywwwsEip4fatp-34">
          <mxGeometry x="180" y="413" width="20" height="18" as="geometry" />
        </mxCell>
        <mxCell id="qt17QkDywwwsEip4fatp-83" value="" style="html=1;jettySize=18;whiteSpace=wrap;fontSize=13;strokeColor=#A50040;strokeOpacity=100;strokeWidth=2.3;rounded=1;arcSize=24;edgeStyle=orthogonalEdgeStyle;startArrow=none;endArrow=block;endFill=1;lucidId=9-puJAywVzGe;fillColor=#d80073;entryX=0.717;entryY=-0.02;entryDx=0;entryDy=0;entryPerimeter=0;" edge="1" parent="qt17QkDywwwsEip4fatp-34" target="qt17QkDywwwsEip4fatp-73">
          <mxGeometry width="100" height="100" relative="1" as="geometry">
            <Array as="points" />
            <mxPoint x="190" y="423" as="sourcePoint" />
            <mxPoint x="1000" y="673" as="targetPoint" />
          </mxGeometry>
        </mxCell>
        <mxCell id="qt17QkDywwwsEip4fatp-87" value="" style="html=1;overflow=block;blockSpacing=1;whiteSpace=wrap;ellipse;fontSize=13;align=center;spacing=3.8;strokeOpacity=0;fillOpacity=75;fillColor=#e51400;strokeWidth=1.5;lucidId=h2su0sWv3N4C;strokeColor=#B20000;fontColor=#ffffff;" vertex="1" parent="qt17QkDywwwsEip4fatp-34">
          <mxGeometry x="310" y="423" width="20" height="18" as="geometry" />
        </mxCell>
        <mxCell id="qt17QkDywwwsEip4fatp-88" value="" style="html=1;overflow=block;blockSpacing=1;whiteSpace=wrap;ellipse;fontSize=13;align=center;spacing=3.8;strokeOpacity=0;fillOpacity=75;fillColor=#e51400;strokeWidth=1.5;lucidId=h2su0sWv3N4C;strokeColor=#B20000;fontColor=#ffffff;" vertex="1" parent="qt17QkDywwwsEip4fatp-34">
          <mxGeometry x="282.5" y="435" width="20" height="18" as="geometry" />
        </mxCell>
        <mxCell id="qt17QkDywwwsEip4fatp-89" value="" style="html=1;overflow=block;blockSpacing=1;whiteSpace=wrap;ellipse;fontSize=13;align=center;spacing=3.8;strokeOpacity=0;fillOpacity=75;fillColor=#e51400;strokeWidth=1.5;lucidId=h2su0sWv3N4C;strokeColor=#B20000;fontColor=#ffffff;" vertex="1" parent="qt17QkDywwwsEip4fatp-34">
          <mxGeometry x="282.5" y="453" width="20" height="18" as="geometry" />
        </mxCell>
        <mxCell id="qt17QkDywwwsEip4fatp-90" value="" style="html=1;overflow=block;blockSpacing=1;whiteSpace=wrap;ellipse;fontSize=13;align=center;spacing=3.8;strokeOpacity=0;fillOpacity=75;fillColor=#e51400;strokeWidth=1.5;lucidId=h2su0sWv3N4C;strokeColor=#B20000;fontColor=#ffffff;" vertex="1" parent="qt17QkDywwwsEip4fatp-34">
          <mxGeometry x="265" y="471" width="20" height="18" as="geometry" />
        </mxCell>
        <mxCell id="qt17QkDywwwsEip4fatp-46" value="" style="html=1;overflow=block;blockSpacing=1;whiteSpace=wrap;container=1;pointerEvents=0;collapsible=0;recursiveResize=0;fontSize=13;spacing=0;strokeColor=#666666;strokeOpacity=100;fillOpacity=100;fillColor=#ffffff;strokeWidth=1.5;lucidId=7Wpudd4A1gtD;" vertex="1" parent="1">
          <mxGeometry x="1370" y="60" width="400" height="500" as="geometry" />
        </mxCell>
        <mxCell id="qt17QkDywwwsEip4fatp-47" value="&lt;font style=&quot;font-size: 23px;&quot;&gt;&lt;b&gt;Amazon Shopping&lt;/b&gt;&lt;/font&gt;" style="text;html=1;strokeColor=default;fillColor=none;align=center;verticalAlign=middle;whiteSpace=wrap;rounded=0;" vertex="1" parent="qt17QkDywwwsEip4fatp-46">
          <mxGeometry x="50" width="321" height="60" as="geometry" />
        </mxCell>
        <mxCell id="qt17QkDywwwsEip4fatp-48" value="&lt;h1 style=&quot;text-align: justify; font-size: 11px;&quot;&gt;&lt;u style=&quot;background-color: initial; font-size: 12px;&quot;&gt;&lt;font style=&quot;font-size: 13px;&quot;&gt;What Personal Information About Customers Does Amazon Collect?&lt;/font&gt;&lt;/u&gt;&lt;br&gt;&lt;/h1&gt;&lt;h1 style=&quot;text-align: justify; font-size: 11px;&quot;&gt;&lt;font style=&quot;font-size: 11px; font-weight: normal;&quot;&gt;We collect your personal information in order to provide and continually improve our products and services.&lt;/font&gt;&lt;/h1&gt;&lt;h1 style=&quot;text-align: justify; font-size: 11px;&quot;&gt;&lt;span style=&quot;font-weight: normal; background-color: initial;&quot;&gt;Here are the types of personal information we collect:&lt;/span&gt;&lt;/h1&gt;&lt;h1 style=&quot;font-size: 11px;&quot;&gt;&lt;ul&gt;&lt;li style=&quot;text-align: justify;&quot;&gt;&lt;font style=&quot;font-size: 11px;&quot;&gt;&lt;u&gt;Information You Give Us:&lt;/u&gt;&lt;/font&gt;&lt;font style=&quot;font-size: 11px; font-weight: normal;&quot;&gt; We receive and store any information you provide in relation to Amazon Services. Click here to see examples of what we collect. You can choose not to provide certain information, but then you might not be able to take advantage of many of our Amazon Services.&lt;/font&gt;&lt;/li&gt;&lt;li style=&quot;text-align: justify;&quot;&gt;&lt;font style=&quot;font-size: 11px;&quot;&gt;&lt;u&gt;Automatic Information&lt;/u&gt;&lt;/font&gt;&lt;font style=&quot;font-size: 11px; font-weight: normal;&quot;&gt;: We automatically collect and store certain types of information about your use of Amazon Services, including information about your interaction with products, content, and services available through Amazon Services. Like many websites, we use &quot;cookies&quot; and other unique identifiers, and we obtain certain types of information when your web browser or device accesses Amazon Services and other content served by or on behalf of Amazon on other websites. Our physical stores may use cameras, computer vision, sensors, and other technology to gather information about your activity in the store, such as the products and services you interact with. Click here to see examples of what we collect.&lt;/font&gt;&lt;/li&gt;&lt;li style=&quot;text-align: justify;&quot;&gt;&lt;font style=&quot;font-size: 11px;&quot;&gt;&lt;u&gt;Information from Other Sources&lt;/u&gt;&lt;/font&gt;&lt;font style=&quot;font-size: 11px; font-weight: normal;&quot;&gt;: We might receive information about you from other sources, such as updated delivery and address information from our carriers, which we use to correct our records and deliver your next purchase more easily. Click here to see additional examples of the information we receive.&lt;/font&gt;&lt;/li&gt;&lt;/ul&gt;&lt;/h1&gt;" style="text;html=1;strokeColor=none;fillColor=none;spacing=5;spacingTop=-20;whiteSpace=wrap;overflow=hidden;rounded=0;" vertex="1" parent="qt17QkDywwwsEip4fatp-46">
          <mxGeometry x="20" y="80" width="370" height="440" as="geometry" />
        </mxCell>
        <mxCell id="qt17QkDywwwsEip4fatp-49" value="" style="html=1;overflow=block;blockSpacing=1;whiteSpace=wrap;container=1;pointerEvents=0;collapsible=0;recursiveResize=0;fontSize=13;spacing=0;strokeColor=#666666;strokeOpacity=100;fillOpacity=100;fillColor=#ffffff;strokeWidth=1.5;lucidId=7Wpudd4A1gtD;" vertex="1" parent="1">
          <mxGeometry x="1880" y="230" width="430" height="621" as="geometry" />
        </mxCell>
        <mxCell id="qt17QkDywwwsEip4fatp-50" value="&lt;font style=&quot;font-size: 23px;&quot;&gt;&lt;b&gt;Amazon Shopping&lt;/b&gt;&lt;/font&gt;" style="text;html=1;strokeColor=default;fillColor=none;align=center;verticalAlign=middle;whiteSpace=wrap;rounded=0;" vertex="1" parent="qt17QkDywwwsEip4fatp-49">
          <mxGeometry x="50" width="321" height="60" as="geometry" />
        </mxCell>
        <mxCell id="qt17QkDywwwsEip4fatp-51" value="&lt;h1 style=&quot;font-size: 11px;&quot;&gt;&lt;font style=&quot;font-size: 11px;&quot;&gt;&lt;u&gt;For What Purposes Does Amazon Use Your Personal Information?&lt;/u&gt;&lt;/font&gt;&lt;/h1&gt;&lt;h1 style=&quot;font-size: 11px;&quot;&gt;&lt;font style=&quot;font-size: 11px; font-weight: normal;&quot;&gt;We use your personal information to operate, provide, develop, and improve the products and services that we offer our customers. These purposes include:&lt;/font&gt;&lt;/h1&gt;&lt;h1 style=&quot;font-size: 11px;&quot;&gt;&lt;ul&gt;&lt;li&gt;&lt;font style=&quot;font-size: 11px;&quot;&gt;&lt;u&gt;Purchase and delivery of products and services&lt;/u&gt;&lt;/font&gt;&lt;font style=&quot;font-size: 11px; font-weight: normal;&quot;&gt;. We use your personal information to take and handle orders, deliver products and services, process payments, and communicate with you about orders, products and services, and promotional offers.&lt;/font&gt;&lt;/li&gt;&lt;li&gt;&lt;font style=&quot;font-size: 11px;&quot;&gt;&lt;u&gt;Provide, troubleshoot, and improve Amazon Services&lt;/u&gt;&lt;/font&gt;&lt;font style=&quot;font-size: 11px; font-weight: normal;&quot;&gt;. We use your personal information to provide functionality, analyze performance, fix errors, and improve the usability and effectiveness of the Amazon Services.&lt;/font&gt;&lt;/li&gt;&lt;li&gt;&lt;font style=&quot;font-size: 11px;&quot;&gt;&lt;u&gt;Recommendations and personalization&lt;/u&gt;&lt;/font&gt;&lt;font style=&quot;font-size: 11px; font-weight: normal;&quot;&gt;. We use your personal information to recommend features, products, and services that might be of interest to you, identify your preferences, and personalize your experience with Amazon Services.&lt;/font&gt;&lt;/li&gt;&lt;li&gt;&lt;font style=&quot;font-size: 11px;&quot;&gt;&lt;u&gt;Provide voice, image and camera services&lt;/u&gt;&lt;/font&gt;&lt;font style=&quot;font-size: 11px; font-weight: normal;&quot;&gt;. When you use our voice, image and camera services, we use your voice input, images, videos, and other personal information to respond to your requests, provide the requested service to you, and improve our services. For more information about Alexa voice services , click here.&lt;/font&gt;&lt;/li&gt;&lt;li&gt;&lt;font style=&quot;font-size: 11px;&quot;&gt;&lt;u&gt;Comply with legal obligations. &lt;/u&gt;&lt;/font&gt;&lt;font style=&quot;font-size: 11px; font-weight: normal;&quot;&gt;In certain cases, we collect and use your personal information to comply with laws. For instance, we collect from sellers information regarding place of establishment and bank account information for identity verification and other purposes.&lt;/font&gt;&lt;/li&gt;&lt;li&gt;&lt;font style=&quot;font-size: 11px;&quot;&gt;&lt;u&gt;Communicate with you&lt;/u&gt;&lt;/font&gt;&lt;font style=&quot;font-size: 11px; font-weight: normal;&quot;&gt;. We use your personal information to communicate with you in relation to Amazon Services via different channels (e.g., by phone, email, chat).&lt;/font&gt;&lt;/li&gt;&lt;li&gt;&lt;font style=&quot;font-size: 11px;&quot;&gt;&lt;u&gt;Advertising&lt;/u&gt;&lt;/font&gt;&lt;font style=&quot;font-size: 11px; font-weight: normal;&quot;&gt;. We use your personal information to display interest-based ads for features, products, and services that might be of interest to you. We do not use information that personally identifies you to display interest-based ads. To learn more, please read our Interest-Based Ads notice.&lt;/font&gt;&lt;/li&gt;&lt;li&gt;&lt;font style=&quot;font-size: 11px;&quot;&gt;&lt;u&gt;Fraud Prevention and Credit Risks.&lt;/u&gt;&lt;/font&gt;&lt;font style=&quot;font-size: 11px; font-weight: normal;&quot;&gt; We use personal information to prevent and detect fraud and abuse in order to protect the security of our customers, Amazon, and others. We may also use scoring methods to assess and manage credit risks.&lt;/font&gt;&lt;/li&gt;&lt;/ul&gt;&lt;/h1&gt;" style="text;html=1;strokeColor=none;fillColor=none;spacing=5;spacingTop=-20;whiteSpace=wrap;overflow=hidden;rounded=0;" vertex="1" parent="qt17QkDywwwsEip4fatp-49">
          <mxGeometry x="20" y="80" width="370" height="540" as="geometry" />
        </mxCell>
        <mxCell id="qt17QkDywwwsEip4fatp-56" value="" style="html=1;overflow=block;blockSpacing=1;whiteSpace=wrap;container=1;pointerEvents=0;collapsible=0;recursiveResize=0;fontSize=13;spacing=0;strokeColor=#666666;strokeOpacity=100;fillOpacity=100;fillColor=#ffffff;strokeWidth=1.5;lucidId=7Wpudd4A1gtD;" vertex="1" parent="1">
          <mxGeometry x="2030" y="860" width="530" height="640" as="geometry" />
        </mxCell>
        <mxCell id="qt17QkDywwwsEip4fatp-57" value="&lt;font style=&quot;font-size: 23px;&quot;&gt;&lt;b&gt;Amazon Shopping&lt;/b&gt;&lt;/font&gt;" style="text;html=1;strokeColor=default;fillColor=none;align=center;verticalAlign=middle;whiteSpace=wrap;rounded=0;" vertex="1" parent="qt17QkDywwwsEip4fatp-56">
          <mxGeometry x="100" width="321" height="60" as="geometry" />
        </mxCell>
        <mxCell id="qt17QkDywwwsEip4fatp-58" value="&lt;h1 style=&quot;font-size: 11px;&quot;&gt;&lt;font style=&quot;font-size: 11px;&quot;&gt;What About Cookies and Other Identifiers?&lt;/font&gt;&lt;/h1&gt;&lt;h1 style=&quot;font-size: 11px;&quot;&gt;&lt;font style=&quot;font-size: 11px; font-weight: normal;&quot;&gt;To enable our systems to recognize your browser or device and to provide and improve Amazon Services, we use cookies and other identifiers. For more information about cookies and how we use them, please read our Cookies Notice.&lt;/font&gt;&lt;/h1&gt;&lt;div&gt;&lt;font style=&quot;font-size: 11px;&quot;&gt;&lt;div style=&quot;&quot;&gt;&lt;b&gt;&lt;u&gt;Does Amazon Share Your Personal Information?&lt;/u&gt;&lt;/b&gt;&lt;/div&gt;&lt;div style=&quot;&quot;&gt;Information about our customers is an important part of our business, and we are not in the business of selling our customers&#39; personal information to others. We share customers&#39; personal information only as described below and with subsidiaries Amazon.com, Inc. controls that either are subject to this Privacy Notice or follow practices at least as protective as those described in this Privacy Notice.&lt;/div&gt;&lt;div style=&quot;&quot;&gt;&lt;ul&gt;&lt;li&gt;&lt;b&gt;&lt;u&gt;Transactions involving Third Parties&lt;/u&gt;&lt;/b&gt;: We make available to you services, products, applications, or skills provided by third parties for use on or through Amazon Services. For example, you can order products from third parties through our stores, download applications from third-party application providers from our App Store, and enable third-party skills through our Alexa services. We also offer services or sell product lines jointly with third-party businesses, such as co-branded credit cards. You can tell when a third party is involved in your transactions, and we share customers&#39; personal information related to those transactions with that third party.&lt;/li&gt;&lt;li&gt;&lt;b&gt;&lt;u&gt;Third-Party Service Providers:&lt;/u&gt;&lt;/b&gt; We employ other companies and individuals to perform functions on our behalf. Examples include fulfilling orders for products or services, delivering packages, sending postal mail and email, removing repetitive information from customer lists, analyzing data, providing marketing assistance, providing search results and links (including paid listings and links), processing payments, transmitting content, scoring, assessing and managing credit risk, and providing customer service. These third-party service providers have access to personal information needed to perform their functions, but may not use it for other purposes.&lt;/li&gt;&lt;li&gt;&lt;b&gt;&lt;u&gt;Business Transfers: &lt;/u&gt;&lt;/b&gt;As we continue to develop our business, we might sell or buy other businesses or services. In such transactions, customer information generally is one of the transferred business assets but remains subject to the promises made in any pre-existing Privacy Notice (unless, of course, the customer consents otherwise). Also, in the unlikely event that Amazon.com, Inc. or substantially all of its assets are acquired, customer information will of course be one of the transferred assets.&lt;/li&gt;&lt;li&gt;&lt;b&gt;&lt;u&gt;Protection of Amazon and Others: &lt;/u&gt;&lt;/b&gt;We release account and other personal information when we believe release is appropriate to comply with the law; enforce or apply our Conditions of Use and other agreements; or protect the rights, property, or safety of Amazon, our users, or others. This includes exchanging information with other companies and organizations for fraud protection and credit risk reduction.&lt;/li&gt;&lt;/ul&gt;&lt;/div&gt;&lt;div style=&quot;&quot;&gt;Other than as set out above, you will receive notice when personal information about you might be shared with third parties, and you will have an opportunity to choose not to share the information.&lt;/div&gt;&lt;/font&gt;&lt;/div&gt;" style="text;html=1;strokeColor=none;fillColor=none;spacing=5;spacingTop=-20;whiteSpace=wrap;overflow=hidden;rounded=0;" vertex="1" parent="qt17QkDywwwsEip4fatp-56">
          <mxGeometry x="20" y="80" width="510" height="560" as="geometry" />
        </mxCell>
        <mxCell id="qt17QkDywwwsEip4fatp-61" value="" style="html=1;jettySize=18;whiteSpace=wrap;fontSize=13;strokeColor=#d6b656;strokeOpacity=100;strokeWidth=2.3;rounded=1;arcSize=24;edgeStyle=orthogonalEdgeStyle;startArrow=none;endArrow=block;endFill=1;exitX=1;exitY=0.5;lucidId=9-puJAywVzGe;entryX=-0.005;entryY=0.533;entryDx=0;entryDy=0;entryPerimeter=0;fillColor=#fff2cc;exitDx=0;exitDy=0;" edge="1" parent="1" source="qt17QkDywwwsEip4fatp-62" target="qt17QkDywwwsEip4fatp-49">
          <mxGeometry width="100" height="100" relative="1" as="geometry">
            <Array as="points" />
            <mxPoint x="1304" y="1512" as="sourcePoint" />
            <mxPoint x="1570" y="1197" as="targetPoint" />
          </mxGeometry>
        </mxCell>
        <mxCell id="qt17QkDywwwsEip4fatp-65" value="" style="html=1;jettySize=18;whiteSpace=wrap;fontSize=13;strokeColor=#9673a6;strokeOpacity=100;strokeWidth=2.3;rounded=1;arcSize=24;edgeStyle=orthogonalEdgeStyle;startArrow=none;endArrow=block;endFill=1;exitX=1;exitY=0.5;lucidId=9-puJAywVzGe;fillColor=#e1d5e7;exitDx=0;exitDy=0;entryX=0.08;entryY=1.007;entryDx=0;entryDy=0;entryPerimeter=0;" edge="1" parent="1" target="qt17QkDywwwsEip4fatp-56">
          <mxGeometry width="100" height="100" relative="1" as="geometry">
            <Array as="points" />
            <mxPoint x="1270" y="1542" as="sourcePoint" />
            <mxPoint x="2080" y="1486" as="targetPoint" />
          </mxGeometry>
        </mxCell>
        <mxCell id="qt17QkDywwwsEip4fatp-67" style="edgeStyle=orthogonalEdgeStyle;rounded=0;orthogonalLoop=1;jettySize=auto;html=1;entryX=0.25;entryY=1;entryDx=0;entryDy=0;fillColor=#e1d5e7;strokeColor=#9673a6;strokeWidth=3;" edge="1" parent="1" source="qt17QkDywwwsEip4fatp-66" target="qt17QkDywwwsEip4fatp-56">
          <mxGeometry relative="1" as="geometry" />
        </mxCell>
        <mxCell id="qt17QkDywwwsEip4fatp-69" value="" style="html=1;overflow=block;blockSpacing=1;whiteSpace=wrap;container=1;pointerEvents=0;collapsible=0;recursiveResize=0;fontSize=13;spacing=0;strokeColor=#666666;strokeOpacity=100;fillOpacity=100;fillColor=#ffffff;strokeWidth=1.5;lucidId=7Wpudd4A1gtD;" vertex="1" parent="1">
          <mxGeometry x="2230" y="1540" width="530" height="640" as="geometry" />
        </mxCell>
        <mxCell id="qt17QkDywwwsEip4fatp-70" value="&lt;font style=&quot;font-size: 23px;&quot;&gt;&lt;b&gt;Amazon Shopping&lt;/b&gt;&lt;/font&gt;" style="text;html=1;strokeColor=default;fillColor=none;align=center;verticalAlign=middle;whiteSpace=wrap;rounded=0;" vertex="1" parent="qt17QkDywwwsEip4fatp-69">
          <mxGeometry x="100" width="321" height="60" as="geometry" />
        </mxCell>
        <mxCell id="qt17QkDywwwsEip4fatp-71" value="&lt;h1 style=&quot;font-size: 11px;&quot;&gt;&lt;font style=&quot;font-size: 11px;&quot;&gt;&lt;u&gt;How Secure Is Information About Me?&lt;/u&gt;&lt;/font&gt;&lt;/h1&gt;&lt;h1 style=&quot;font-size: 11px;&quot;&gt;&lt;font style=&quot;font-size: 11px; font-weight: normal;&quot;&gt;We design our systems with your security and privacy in mind.&lt;/font&gt;&lt;/h1&gt;&lt;h1 style=&quot;font-size: 11px;&quot;&gt;&lt;font style=&quot;font-size: 11px; font-weight: normal;&quot;&gt;We work to protect the security of your personal information during transmission by using encryption protocols and software.&lt;/font&gt;&lt;/h1&gt;&lt;h1 style=&quot;font-size: 11px;&quot;&gt;&lt;font style=&quot;font-size: 11px; font-weight: normal;&quot;&gt;We follow the Payment Card Industry Data Security Standard (PCI DSS) when handling credit card data.&lt;/font&gt;&lt;/h1&gt;&lt;h1 style=&quot;font-size: 11px;&quot;&gt;&lt;font style=&quot;font-size: 11px; font-weight: normal;&quot;&gt;We maintain physical, electronic, and procedural safeguards in connection with the collection, storage, and disclosure of customer personal information. Our security procedures mean that we may ask to verify your identity before we disclose personal information to you.&lt;/font&gt;&lt;/h1&gt;&lt;h1 style=&quot;font-size: 11px;&quot;&gt;&lt;font style=&quot;font-size: 11px; font-weight: normal;&quot;&gt;Our devices offer security features to protect them against unauthorized access and loss of data. You can control these features and configure them based on your needs. Click here for more information on how to manage the security settings of your device.&lt;/font&gt;&lt;/h1&gt;&lt;h1 style=&quot;font-size: 11px;&quot;&gt;&lt;font style=&quot;font-size: 11px; font-weight: normal;&quot;&gt;It is important for you to protect against unauthorized access to your password and to your computers, devices, and applications. We recommend using a unique password for your Amazon account that is not used for other online accounts. Be sure to sign off when finished using a shared computer. Click here for more information on how to sign off.&lt;/font&gt;&lt;/h1&gt;&lt;h1 style=&quot;font-size: 11px;&quot;&gt;&lt;font style=&quot;font-size: 11px;&quot;&gt;&lt;u&gt;What About Advertising?&lt;/u&gt;&lt;/font&gt;&lt;/h1&gt;&lt;h1 style=&quot;font-size: 11px;&quot;&gt;&lt;font style=&quot;font-size: 11px; font-weight: normal;&quot;&gt;Third-Party Advertisers and Links to Other Websites: Amazon Services may include third-party advertising and links to other websites and apps. Third-party advertising partners may collect information about you when you interact with their content, advertising, and services. For more information about third-party advertising at Amazon, including interest-based ads, please read our Interest-Based Ads notice. To adjust your advertising preferences, please go to the Your Ads Privacy Choices page.&lt;/font&gt;&lt;/h1&gt;&lt;h1 style=&quot;font-size: 11px;&quot;&gt;&lt;font style=&quot;font-size: 11px; font-weight: normal;&quot;&gt;Use of Third-Party Advertising Services: We provide ad companies with information that allows them to serve you with more useful and relevant Amazon ads and to measure their effectiveness. We never share your name or other information that directly identifies you when we do this. Instead, we use an advertising identifier like a cookie, a device identifier, or a code derived from applying irreversible cryptography to other information like an email address. For example, if you have already downloaded one of our apps, we will share your advertising identifier and data about that event so that you will not be served an ad to download the app again. While we do not share your specific shopping actions like purchases, product views, or searches with ad companies, we may share an advertising identifier and an estimate of the value of the ads they show you on our behalf so they can serve you with more effective Amazon ads. Some ad companies also use this information to serve you relevant ads from other advertisers. You can learn more about how to opt-out of personalized advertising (such as cross-context behavioral advertising) by going to the Your Ads Privacy Choices page.&lt;/font&gt;&lt;/h1&gt;" style="text;html=1;strokeColor=none;fillColor=none;spacing=5;spacingTop=-20;whiteSpace=wrap;overflow=hidden;rounded=0;" vertex="1" parent="qt17QkDywwwsEip4fatp-69">
          <mxGeometry x="10" y="80" width="510" height="560" as="geometry" />
        </mxCell>
        <mxCell id="qt17QkDywwwsEip4fatp-72" value="" style="html=1;overflow=block;blockSpacing=1;whiteSpace=wrap;container=1;pointerEvents=0;collapsible=0;recursiveResize=0;fontSize=13;spacing=0;strokeColor=#666666;strokeOpacity=100;fillOpacity=100;fillColor=#ffffff;strokeWidth=1.5;lucidId=7Wpudd4A1gtD;" vertex="1" parent="1">
          <mxGeometry x="1660" y="1880" width="530" height="800" as="geometry" />
        </mxCell>
        <mxCell id="qt17QkDywwwsEip4fatp-73" value="&lt;font style=&quot;font-size: 23px;&quot;&gt;&lt;b&gt;Amazon Shopping&lt;/b&gt;&lt;/font&gt;" style="text;html=1;strokeColor=default;fillColor=none;align=center;verticalAlign=middle;whiteSpace=wrap;rounded=0;" vertex="1" parent="qt17QkDywwwsEip4fatp-72">
          <mxGeometry x="100" width="321" height="60" as="geometry" />
        </mxCell>
        <mxCell id="qt17QkDywwwsEip4fatp-74" value="&lt;h1 style=&quot;font-size: 11px;&quot;&gt;&lt;font style=&quot;font-size: 11px;&quot;&gt;&lt;u&gt;What Information Can I Access?&lt;/u&gt;&lt;/font&gt;&lt;/h1&gt;&lt;h1 style=&quot;font-size: 11px;&quot;&gt;&lt;font style=&quot;font-size: 11px; font-weight: normal;&quot;&gt;You can access your information, including your name, address, payment options, profile information, Prime membership, household settings, and purchase history in the &quot;Your Account&quot; section of the website. Click here for a list of examples that you can access.&lt;/font&gt;&lt;/h1&gt;&lt;h1 style=&quot;font-size: 11px;&quot;&gt;&lt;font style=&quot;font-size: 11px;&quot;&gt;&lt;u&gt;What Choices Do I Have?&lt;/u&gt;&lt;/font&gt;&lt;/h1&gt;&lt;h1 style=&quot;font-size: 11px;&quot;&gt;&lt;font style=&quot;font-size: 11px; font-weight: normal;&quot;&gt;If you have any questions as to how we collect and use your personal information, please contact our Customer Service. Many of our Amazon Services also include settings that provide you with options as to how your information is being used.&lt;/font&gt;&lt;/h1&gt;&lt;h1 style=&quot;font-size: 11px;&quot;&gt;&lt;ul&gt;&lt;li&gt;&lt;font style=&quot;font-size: 11px; font-weight: normal;&quot;&gt;As described above, you can choose not to provide certain information, but then you might not be able to take advantage of many of the Amazon Services.&lt;/font&gt;&lt;/li&gt;&lt;li&gt;&lt;font style=&quot;font-size: 11px; font-weight: normal;&quot;&gt;You can add or update certain information on pages such as those referenced in What Information Can I Access?. When you update information, we usually keep a copy of the prior version for our records.&lt;/font&gt;&lt;/li&gt;&lt;li&gt;&lt;font style=&quot;font-size: 11px; font-weight: normal;&quot;&gt;If you do not want to receive email or other communications from us, please adjust your Customer Communication Preferences. If you don&#39;t want to receive in-app notifications from us, please adjust your notification settings in the app or device.&lt;/font&gt;&lt;/li&gt;&lt;li&gt;&lt;font style=&quot;font-size: 11px; font-weight: normal;&quot;&gt;You may adjust your personalized advertising preferences by visiting Your Ads Privacy Choices.&lt;/font&gt;&lt;/li&gt;&lt;li&gt;&lt;font style=&quot;font-size: 11px; font-weight: normal;&quot;&gt;The Help feature on most browsers and devices will tell you how to prevent your browser or device from accepting new cookies or other identifiers, how to have the browser notify you when you receive a new cookie, or how to block cookies altogether. Because cookies and identifiers allow you to take advantage of some essential features of Amazon Services, we recommend that you leave them turned on. For instance, if you block or otherwise reject our cookies, you will not be able to add items to your Shopping Cart, proceed to Checkout, or use any Services that require you to Sign in. For more information about cookies and other identifiers, see our Cookies Notice.&lt;/font&gt;&lt;/li&gt;&lt;li&gt;&lt;font style=&quot;font-size: 11px; font-weight: normal;&quot;&gt;If you want to browse our websites without linking the browsing history to your account, you may do so by logging out of your account here and blocking cookies on your browser.&lt;/font&gt;&lt;/li&gt;&lt;li&gt;&lt;font style=&quot;font-size: 11px; font-weight: normal;&quot;&gt;You can manage the recommendations you receive in our store here, remove recommendations you don’t want to see here by selecting View All and Manage then selecting the Remove Items toggle that appears at the top of the page, and edit your browsing history here.&lt;/font&gt;&lt;/li&gt;&lt;li&gt;&lt;font style=&quot;font-size: 11px; font-weight: normal;&quot;&gt;You will also be able to opt out of certain other types of data usage by updating your settings on the applicable Amazon website (e.g., in &quot;Manage Your Content and Devices&quot;), device, or application. For more information click here. Most non-Amazon devices also provide users with the ability to change device permissions (e.g., disable/access location services, contacts). For most devices, these controls are located in the device&#39;s settings menu. If you have questions about how to change your device permissions on devices manufactured by third parties, we recommend you contact your mobile service carrier or your device manufacturer.&lt;/font&gt;&lt;/li&gt;&lt;li&gt;&lt;font style=&quot;font-size: 11px; font-weight: normal;&quot;&gt;If you are a seller, you can add or update certain information in Seller Central, update your account information by accessing your Seller Account Information, and adjust your email or other communications you receive from us by updating your Notification Preferences.&lt;/font&gt;&lt;/li&gt;&lt;li&gt;&lt;font style=&quot;font-size: 11px; font-weight: normal;&quot;&gt;If you are an author, you can add or update the information you have provided in the Author Portal and Author Central by accessing your accounts in the Author Portal and Author Central, respectively.&lt;/font&gt;&lt;/li&gt;&lt;li&gt;&lt;font style=&quot;font-size: 11px; font-weight: normal;&quot;&gt;If you shop in our physical stores, you can manage how certain data is used to analyze the performance of our products and services, as well as learn more here.&lt;/font&gt;&lt;/li&gt;&lt;/ul&gt;&lt;/h1&gt;&lt;h1 style=&quot;font-size: 11px;&quot;&gt;&lt;font style=&quot;font-size: 11px; font-weight: normal;&quot;&gt;In addition, to the extent required by applicable law, you may have the right to request access to or delete your personal information. If you wish to do any of these things, you may go to Data Privacy Queries. Depending on your data choices, certain services may be limited or unavailable.&lt;/font&gt;&lt;/h1&gt;" style="text;html=1;strokeColor=none;fillColor=none;spacing=5;spacingTop=-20;whiteSpace=wrap;overflow=hidden;rounded=0;" vertex="1" parent="qt17QkDywwwsEip4fatp-72">
          <mxGeometry x="20" y="80" width="510" height="730" as="geometry" />
        </mxCell>
        <mxCell id="qt17QkDywwwsEip4fatp-78" value="" style="html=1;jettySize=18;whiteSpace=wrap;fontSize=13;strokeColor=#82b366;strokeOpacity=100;strokeWidth=2.3;rounded=1;arcSize=24;edgeStyle=orthogonalEdgeStyle;startArrow=none;endArrow=block;endFill=1;exitX=1;exitY=0.5;lucidId=9-puJAywVzGe;fillColor=#d5e8d4;exitDx=0;exitDy=0;entryX=0;entryY=0.25;entryDx=0;entryDy=0;" edge="1" parent="1" target="qt17QkDywwwsEip4fatp-69">
          <mxGeometry width="100" height="100" relative="1" as="geometry">
            <Array as="points" />
            <mxPoint x="1240" y="1578" as="sourcePoint" />
            <mxPoint x="2042" y="1540" as="targetPoint" />
          </mxGeometry>
        </mxCell>
        <mxCell id="qt17QkDywwwsEip4fatp-79" value="" style="html=1;jettySize=18;whiteSpace=wrap;fontSize=13;strokeColor=#82b366;strokeOpacity=100;strokeWidth=2.3;rounded=1;arcSize=24;edgeStyle=orthogonalEdgeStyle;startArrow=none;endArrow=block;endFill=1;exitX=1;exitY=0.5;lucidId=9-puJAywVzGe;fillColor=#d5e8d4;exitDx=0;exitDy=0;" edge="1" parent="1">
          <mxGeometry width="100" height="100" relative="1" as="geometry">
            <Array as="points" />
            <mxPoint x="1168.72" y="1588" as="sourcePoint" />
            <mxPoint x="2200" y="1700" as="targetPoint" />
          </mxGeometry>
        </mxCell>
        <mxCell id="qt17QkDywwwsEip4fatp-82" value="" style="html=1;jettySize=18;whiteSpace=wrap;fontSize=13;strokeColor=#A50040;strokeOpacity=100;strokeWidth=2.3;rounded=1;arcSize=24;edgeStyle=orthogonalEdgeStyle;startArrow=none;endArrow=block;endFill=1;lucidId=9-puJAywVzGe;fillColor=#d80073;entryX=0.781;entryY=0.007;entryDx=0;entryDy=0;entryPerimeter=0;" edge="1" parent="1" target="qt17QkDywwwsEip4fatp-73">
          <mxGeometry width="100" height="100" relative="1" as="geometry">
            <Array as="points" />
            <mxPoint x="1220" y="1601" as="sourcePoint" />
            <mxPoint x="2251.28" y="1712" as="targetPoint" />
          </mxGeometry>
        </mxCell>
        <mxCell id="qt17QkDywwwsEip4fatp-84" value="" style="html=1;overflow=block;blockSpacing=1;whiteSpace=wrap;container=1;pointerEvents=0;collapsible=0;recursiveResize=0;fontSize=13;spacing=0;strokeColor=#666666;strokeOpacity=100;fillOpacity=100;fillColor=#ffffff;strokeWidth=1.5;lucidId=7Wpudd4A1gtD;" vertex="1" parent="1">
          <mxGeometry x="1070" y="1890" width="530" height="520" as="geometry" />
        </mxCell>
        <mxCell id="qt17QkDywwwsEip4fatp-85" value="&lt;font style=&quot;font-size: 23px;&quot;&gt;&lt;b&gt;Amazon Shopping&lt;/b&gt;&lt;/font&gt;" style="text;html=1;strokeColor=default;fillColor=none;align=center;verticalAlign=middle;whiteSpace=wrap;rounded=0;" vertex="1" parent="qt17QkDywwwsEip4fatp-84">
          <mxGeometry x="100" width="321" height="60" as="geometry" />
        </mxCell>
        <mxCell id="qt17QkDywwwsEip4fatp-86" value="&lt;h1 style=&quot;font-size: 11px;&quot;&gt;&lt;font style=&quot;font-size: 11px;&quot;&gt;&lt;u&gt;Are Children Allowed to Use Amazon Services?&lt;/u&gt;&lt;/font&gt;&lt;/h1&gt;&lt;h1 style=&quot;font-size: 11px;&quot;&gt;&lt;font style=&quot;font-size: 11px; font-weight: normal;&quot;&gt;Amazon does not sell products for purchase by children. We sell children&#39;s products for purchase by adults. If you are under 18, you may use Amazon Services only with the involvement of a parent or guardian. We do not knowingly collect personal information from children under the age of 13 without the consent of the child&#39;s parent or guardian. For more information, please see our Children&#39;s Privacy Disclosure.&lt;/font&gt;&lt;/h1&gt;&lt;h1 style=&quot;font-size: 11px;&quot;&gt;&lt;font style=&quot;font-size: 11px;&quot;&gt;&lt;u&gt;EU-US and Swiss-US Data Privacy Framework&lt;/u&gt;&lt;/font&gt;&lt;/h1&gt;&lt;h1 style=&quot;font-size: 11px;&quot;&gt;&lt;font style=&quot;font-size: 11px; font-weight: normal;&quot;&gt;Amazon.com, Inc. participates in the EU-US Data Privacy Framework, the UK Extension to the EU-US Data Privacy Framework, and the Swiss-US Data Privacy Framework*. Click here to learn more.&lt;/font&gt;&lt;/h1&gt;&lt;h1 style=&quot;font-size: 11px;&quot;&gt;&lt;font style=&quot;font-size: 11px; font-weight: normal;&quot;&gt;*We will not rely on the Swiss-US Data Privacy Framework or the UK Extension to the EU-US Data Privacy Framework until they enter into force, but we adhere to their required commitments in anticipation of their doing so.&lt;/font&gt;&lt;/h1&gt;&lt;h1 style=&quot;font-size: 11px;&quot;&gt;&lt;font style=&quot;font-size: 11px;&quot;&gt;&lt;u&gt;Additional State-Specific Privacy Disclosures&lt;/u&gt;&lt;/font&gt;&lt;/h1&gt;&lt;h1 style=&quot;font-size: 11px;&quot;&gt;&lt;font style=&quot;font-size: 11px; font-weight: normal;&quot;&gt;Click here to read additional state-specific privacy disclosures as required under applicable laws.&lt;/font&gt;&lt;/h1&gt;&lt;h1 style=&quot;font-size: 11px;&quot;&gt;&lt;font style=&quot;font-size: 11px;&quot;&gt;&lt;u&gt;Conditions of Use, Notices, and Revisions&lt;/u&gt;&lt;/font&gt;&lt;/h1&gt;&lt;h1 style=&quot;font-size: 11px;&quot;&gt;&lt;font style=&quot;font-size: 11px; font-weight: normal;&quot;&gt;If you choose to use Amazon Services, your use and any dispute over privacy is subject to this Notice and our Conditions of Use, including limitations on damages, resolution of disputes, and application of the law of the state of Washington. If you have any concern about privacy at Amazon, please contact us with a thorough description, and we will try to resolve it. Our business changes constantly, and our Privacy Notice will change also. You should check our websites frequently to see recent changes. Unless stated otherwise, our current Privacy Notice applies to all information that we have about you and your account. We stand behind the promises we make, however, and will never materially change our policies and practices to make them less protective of customer information collected in the past without the consent of affected customers.&lt;/font&gt;&lt;/h1&gt;" style="text;html=1;strokeColor=none;fillColor=none;spacing=5;spacingTop=-20;whiteSpace=wrap;overflow=hidden;rounded=0;" vertex="1" parent="qt17QkDywwwsEip4fatp-84">
          <mxGeometry x="20" y="80" width="510" height="480" as="geometry" />
        </mxCell>
        <mxCell id="qt17QkDywwwsEip4fatp-91" value="" style="html=1;jettySize=18;whiteSpace=wrap;fontSize=13;strokeColor=#B20000;strokeOpacity=100;strokeWidth=2.3;rounded=1;arcSize=24;edgeStyle=orthogonalEdgeStyle;startArrow=none;endArrow=block;endFill=1;lucidId=9-puJAywVzGe;fillColor=#e51400;entryX=0.868;entryY=-0.003;entryDx=0;entryDy=0;entryPerimeter=0;" edge="1" parent="1" target="qt17QkDywwwsEip4fatp-84">
          <mxGeometry width="100" height="100" relative="1" as="geometry">
            <Array as="points" />
            <mxPoint x="1315" y="1631" as="sourcePoint" />
            <mxPoint x="2125" y="1890" as="targetPoint" />
          </mxGeometry>
        </mxCell>
        <mxCell id="qt17QkDywwwsEip4fatp-92" style="edgeStyle=orthogonalEdgeStyle;rounded=0;orthogonalLoop=1;jettySize=auto;html=1;fillColor=#e51400;strokeColor=#B20000;strokeWidth=2;entryX=0.937;entryY=0.013;entryDx=0;entryDy=0;entryPerimeter=0;" edge="1" parent="1" source="qt17QkDywwwsEip4fatp-88" target="qt17QkDywwwsEip4fatp-85">
          <mxGeometry relative="1" as="geometry">
            <mxPoint x="1470" y="1880" as="targetPoint" />
          </mxGeometry>
        </mxCell>
        <mxCell id="qt17QkDywwwsEip4fatp-93" value="" style="html=1;jettySize=18;whiteSpace=wrap;fontSize=13;strokeColor=#B20000;strokeOpacity=100;strokeWidth=2.3;rounded=1;arcSize=24;edgeStyle=orthogonalEdgeStyle;startArrow=none;endArrow=block;endFill=1;lucidId=9-puJAywVzGe;fillColor=#e51400;" edge="1" parent="1">
          <mxGeometry width="100" height="100" relative="1" as="geometry">
            <Array as="points" />
            <mxPoint x="1290" y="1660" as="sourcePoint" />
            <mxPoint x="1505" y="1900" as="targetPoint" />
          </mxGeometry>
        </mxCell>
        <mxCell id="qt17QkDywwwsEip4fatp-94" value="" style="html=1;jettySize=18;whiteSpace=wrap;fontSize=13;strokeColor=#B20000;strokeOpacity=100;strokeWidth=2.3;rounded=1;arcSize=24;edgeStyle=orthogonalEdgeStyle;startArrow=none;endArrow=block;endFill=1;lucidId=9-puJAywVzGe;fillColor=#e51400;entryX=0.972;entryY=-0.053;entryDx=0;entryDy=0;entryPerimeter=0;" edge="1" parent="1" target="qt17QkDywwwsEip4fatp-85">
          <mxGeometry width="100" height="100" relative="1" as="geometry">
            <Array as="points" />
            <mxPoint x="1270" y="1680" as="sourcePoint" />
            <mxPoint x="1485" y="1937" as="targetPoint" />
          </mxGeometry>
        </mxCell>
      </root>
    </mxGraphModel>
  </diagram>
</mxfile>
